<?xml version="1.0" encoding="UTF-8"?>
<svg width="377px" height="85px" viewBox="0 0 377 85" version="1.1" xmlns="http://www.w3.org/2000/svg" xmlns:xlink="http://www.w3.org/1999/xlink">
    <!-- Generator: Sketch 52.6 (67491) - http://www.bohemiancoding.com/sketch -->
    <title>Group 2</title>
    <desc>Created with Sketch.</desc>
    <g id="Page-2" stroke="none" stroke-width="1" fill="none" fill-rule="evenodd">
        <g id="Group-2">
            <g id="logo" transform="translate(1.000000, 1.000000)">
                <polygon id="Path" stroke="#932210" stroke-width="0.8" fill="#932210" points="36.4596194 0 72.8184653 20.7807146 72.8184653 62.3421439 36.4596194 83.1228582 72.8184653 62.3421439 36.4596194 83.1228582 0.100773478 62.3421439 0.100773478 20.7807146"></polygon>
                <path d="M53.2659421,41.5614293 C53.2659421,50.7499747 45.7414952,58.1987626 36.4596194,58.1987626 C27.1777437,58.1987626 19.6532967,50.7499747 19.6532967,41.5614293 C19.6532967,32.3728838 27.1777437,24.9240961 36.4596194,24.9240961 C45.7414952,24.9240961 53.2659421,32.3728838 53.2659421,41.5614293 Z" id="Path" stroke="#FFFFFF" stroke-width="2.4"></path>
                <path d="M67.9813126,53.0528476 C73.6192166,37.8971608 67.4414989,20.922566 53.3349581,12.8088727 C39.2284178,4.69517949 21.272393,7.78871072 10.7641745,20.1431268 C0.255955917,32.4975429 0.234316538,50.5401864 10.712871,62.9192693 C21.1914256,75.298352 39.1399793,78.4340838 53.2659421,70.3535738" id="Path" stroke="#FFFFFF" stroke-width="2.4"></path>
                <path d="M52.4016225,46.82818 C50.7063483,51.0774399 52.7912343,55.8848333 57.0708886,57.5947148 C61.3505427,59.3045964 66.2221843,57.2765955 67.9813126,53.0528476" id="Path" stroke="#FFFFFF" stroke-width="2.4"></path>
                <path d="M19.6660259,79.6530387 L19.6660259,24.9240961" id="Path" stroke="#FFFFFF" stroke-width="2.4"></path>
            </g>
            <path d="M106.1776,34.3856 L108.0624,34.3856 L108.0624,39.8416 L108.1616,39.8416 C108.492268,38.8826619 108.963464,38.0312037 109.5752,37.2872 C110.186936,36.5431963 110.897863,35.9066693 111.708,35.3776 C112.518137,34.8485307 113.402662,34.4517347 114.3616,34.1872 C115.320538,33.9226653 116.295995,33.7904 117.288,33.7904 C118.776007,33.7904 120.040795,33.9722648 121.0824,34.336 C122.124005,34.6997352 122.975463,35.179197 123.6368,35.7744 C124.298137,36.369603 124.818931,37.0391963 125.1992,37.7832 C125.579469,38.5272037 125.852266,39.2794629 126.0176,40.04 C126.182934,40.8005371 126.282133,41.5362631 126.3152,42.2472 C126.348267,42.9581369 126.3648,43.5781307 126.3648,44.1072 L126.3648,59.88 L124.48,59.88 L124.48,43.76 C124.48,43.1317302 124.4304,42.3381381 124.3312,41.3792 C124.232,40.4202619 123.942669,39.502671 123.4632,38.6264 C122.983731,37.750129 122.256272,36.9978698 121.2808,36.3696 C120.305328,35.7413302 118.957875,35.4272 117.2384,35.4272 C115.783459,35.4272 114.493872,35.6917307 113.3696,36.2208 C112.245328,36.7498693 111.286404,37.4855953 110.4928,38.428 C109.699196,39.3704047 109.095735,40.4946601 108.6824,41.8008 C108.269065,43.1069399 108.0624,44.5370589 108.0624,46.0912 L108.0624,59.88 L106.1776,59.88 L106.1776,34.3856 Z M130.7296,47.1328 C130.7296,45.3141242 130.985864,43.6029414 131.4984,41.9992 C132.010936,40.3954586 132.763195,38.9818728 133.7552,37.7584 C134.747205,36.5349272 135.970659,35.5677369 137.4256,34.8568 C138.880541,34.1458631 140.550391,33.7904 142.4352,33.7904 C144.320009,33.7904 145.989859,34.1458631 147.4448,34.8568 C148.899741,35.5677369 150.123195,36.5349272 151.1152,37.7584 C152.107205,38.9818728 152.859464,40.3954586 153.372,41.9992 C153.884536,43.6029414 154.1408,45.3141242 154.1408,47.1328 C154.1408,48.9514758 153.884536,50.6709252 153.372,52.2912 C152.859464,53.9114748 152.107205,55.3250606 151.1152,56.532 C150.123195,57.7389394 148.899741,58.6978631 147.4448,59.4088 C145.989859,60.1197369 144.320009,60.4752 142.4352,60.4752 C140.550391,60.4752 138.880541,60.1197369 137.4256,59.4088 C135.970659,58.6978631 134.747205,57.7389394 133.7552,56.532 C132.763195,55.3250606 132.010936,53.9114748 131.4984,52.2912 C130.985864,50.6709252 130.7296,48.9514758 130.7296,47.1328 Z M132.6144,47.1328 C132.6144,48.6538743 132.829331,50.1170596 133.2592,51.5224 C133.689069,52.9277404 134.317329,54.1759945 135.144,55.2672 C135.970671,56.3584055 136.995727,57.2263968 138.2192,57.8712 C139.442673,58.5160032 140.847992,58.8384 142.4352,58.8384 C144.022408,58.8384 145.427727,58.5160032 146.6512,57.8712 C147.874673,57.2263968 148.899729,56.3584055 149.7264,55.2672 C150.553071,54.1759945 151.181331,52.9277404 151.6112,51.5224 C152.041069,50.1170596 152.256,48.6538743 152.256,47.1328 C152.256,45.6117257 152.041069,44.1485404 151.6112,42.7432 C151.181331,41.3378596 150.553071,40.0896055 149.7264,38.9984 C148.899729,37.9071945 147.874673,37.0392032 146.6512,36.3944 C145.427727,35.7495968 144.022408,35.4272 142.4352,35.4272 C140.847992,35.4272 139.442673,35.7495968 138.2192,36.3944 C136.995727,37.0392032 135.970671,37.9071945 135.144,38.9984 C134.317329,40.0896055 133.689069,41.3378596 133.2592,42.7432 C132.829331,44.1485404 132.6144,45.6117257 132.6144,47.1328 Z M178.2464,54.424 L178.1472,54.424 C177.089061,56.4410768 175.766408,57.9538616 174.1792,58.9624 C172.591992,59.9709384 170.657611,60.4752 168.376,60.4752 C166.458124,60.4752 164.804807,60.1114703 163.416,59.384 C162.027193,58.6565297 160.886404,57.6810728 159.9936,56.4576 C159.100796,55.2341272 158.439469,53.8205414 158.0096,52.2168 C157.579731,50.6130586 157.3648,48.9349421 157.3648,47.1824 C157.3648,45.2975906 157.596264,43.5368082 158.0592,41.9 C158.522136,40.2631918 159.224795,38.849606 160.1672,37.6592 C161.109605,36.468794 162.291726,35.5264035 163.7136,34.832 C165.135474,34.1375965 166.805324,33.7904 168.7232,33.7904 C169.748272,33.7904 170.756795,33.9309319 171.7488,34.212 C172.740805,34.4930681 173.658396,34.8981307 174.5016,35.4272 C175.344804,35.9562693 176.08053,36.617596 176.7088,37.4112 C177.33707,38.204804 177.816532,39.097595 178.1472,40.0896 L178.2464,40.0896 L178.2464,24.4656 L180.1312,24.4656 L180.1312,59.88 L178.2464,59.88 L178.2464,54.424 Z M168.7728,58.8384 C170.393075,58.8384 171.790127,58.5077366 172.964,57.8464 C174.137873,57.1850634 175.113329,56.3088055 175.8904,55.2176 C176.667471,54.1263945 177.246131,52.8781404 177.6264,51.4728 C178.006669,50.0674596 178.1968,48.6373406 178.1968,47.1824 C178.1968,45.6943926 178.006669,44.2477404 177.6264,42.8424 C177.246131,41.4370596 176.675737,40.1805389 175.9152,39.0728 C175.154663,37.9650611 174.170939,37.0805366 172.964,36.4192 C171.757061,35.7578634 170.343475,35.4272 168.7232,35.4272 C167.036792,35.4272 165.598406,35.7495968 164.408,36.3944 C163.217594,37.0392032 162.233871,37.9071945 161.4568,38.9984 C160.679729,40.0896055 160.117602,41.3461262 159.7704,42.768 C159.423198,44.1898738 159.2496,45.6613257 159.2496,47.1824 C159.2496,48.6704074 159.439731,50.1170596 159.82,51.5224 C160.200269,52.9277404 160.778929,54.1759945 161.556,55.2672 C162.333071,56.3584055 163.316794,57.2263968 164.5072,57.8712 C165.697606,58.5160032 167.119458,58.8384 168.7728,58.8384 Z M186.8768,47.3808 L186.8768,47.6784 C186.8768,49.1664074 187.075198,50.5882599 187.472,51.944 C187.868802,53.2997401 188.455729,54.4901282 189.2328,55.5152 C190.009871,56.5402718 190.985327,57.350397 192.1592,57.9456 C193.333073,58.540803 194.697059,58.8384 196.2512,58.8384 C198.797346,58.8384 200.814393,58.1688067 202.3024,56.8296 C203.790407,55.4903933 204.815464,53.6304119 205.3776,51.2496 L207.2624,51.2496 C206.700264,54.2256149 205.485076,56.5071921 203.6168,58.0944 C201.748524,59.6816079 199.276815,60.4752 196.2016,60.4752 C194.316791,60.4752 192.67174,60.1362701 191.2664,59.4584 C189.86106,58.7805299 188.687205,57.8546725 187.7448,56.6808 C186.802395,55.5069275 186.099736,54.1181414 185.6368,52.5144 C185.173864,50.9106586 184.9424,49.1829426 184.9424,47.3312 C184.9424,45.5455911 185.182131,43.8344082 185.6616,42.1976 C186.141069,40.5607918 186.860262,39.1224062 187.8192,37.8824 C188.778138,36.6423938 189.976793,35.6504037 191.4152,34.9064 C192.853607,34.1623963 194.548257,33.7904 196.4992,33.7904 C198.284809,33.7904 199.863726,34.1210634 201.236,34.7824 C202.608274,35.4437366 203.757329,36.3447943 204.6832,37.4856 C205.609071,38.6264057 206.311731,39.9490591 206.7912,41.4536 C207.270669,42.9581409 207.5104,44.5701247 207.5104,46.2896 C207.5104,46.4549342 207.502133,46.6450656 207.4856,46.86 C207.469067,47.0749344 207.4608,47.2485327 207.4608,47.3808 L186.8768,47.3808 Z M205.576,45.744 C205.509866,44.3551931 205.278402,43.0408062 204.8816,41.8008 C204.484798,40.5607938 203.897871,39.4696047 203.1208,38.5272 C202.343729,37.5847953 201.401339,36.8325361 200.2936,36.2704 C199.185861,35.7082639 197.921074,35.4272 196.4992,35.4272 C194.978126,35.4272 193.638939,35.7165304 192.4816,36.2952 C191.324261,36.8738696 190.348804,37.6343953 189.5552,38.5768 C188.761596,39.5192047 188.149869,40.6186604 187.72,41.8752 C187.290131,43.1317396 187.0256,44.4213267 186.9264,45.744 L205.576,45.744 Z M212.52,45.4464 L223.1344,45.4464 L223.1344,47.3312 L212.52,47.3312 L212.52,45.4464 Z M231.6656,40.2384 L231.7648,40.2384 C231.963201,39.6101302 232.293864,38.9157371 232.7568,38.1552 C233.219736,37.3946629 233.831463,36.6920032 234.592,36.0472 C235.352537,35.4023968 236.270128,34.8650688 237.3448,34.4352 C238.419472,34.0053312 239.651193,33.7904 241.04,33.7904 C242.990943,33.7904 244.685593,34.1541297 246.124,34.8816 C247.562407,35.6090703 248.752795,36.5845272 249.6952,37.808 C250.637605,39.0314728 251.340264,40.4533252 251.8032,42.0736 C252.266136,43.6938748 252.4976,45.3967911 252.4976,47.1824 C252.4976,49.1333431 252.266136,50.9189252 251.8032,52.5392 C251.340264,54.1594748 250.637605,55.5565275 249.6952,56.7304 C248.752795,57.9042725 247.562407,58.8218634 246.124,59.4832 C244.685593,60.1445366 242.990943,60.4752 241.04,60.4752 C238.923723,60.4752 237.038942,60.0122713 235.3856,59.0864 C233.732258,58.1605287 232.525337,56.6560104 231.7648,54.5728 L231.6656,54.5728 L231.6656,69.0064 L229.7808,69.0064 L229.7808,34.3856 L231.6656,34.3856 L231.6656,40.2384 Z M241.04,58.8384 C242.693342,58.8384 244.123461,58.5242698 245.3304,57.896 C246.537339,57.2677302 247.529329,56.4245386 248.3064,55.3664 C249.083471,54.3082614 249.662131,53.0765404 250.0424,51.6712 C250.422669,50.2658596 250.6128,48.7696079 250.6128,47.1824 C250.6128,45.7274594 250.430935,44.2973404 250.0672,42.892 C249.703465,41.4866596 249.141337,40.2301389 248.3808,39.1224 C247.620263,38.0146611 246.636539,37.1218701 245.4296,36.444 C244.222661,35.7661299 242.759475,35.4272 241.04,35.4272 C239.353592,35.4272 237.915206,35.7578634 236.7248,36.4192 C235.534394,37.0805366 234.567204,37.9567945 233.8232,39.048 C233.079196,40.1392055 232.541868,41.3874596 232.2112,42.7928 C231.880532,44.1981404 231.7152,45.6613257 231.7152,47.1824 C231.7152,48.7034743 231.863999,50.1666596 232.1616,51.572 C232.459201,52.9773404 232.963463,54.217328 233.6744,55.292 C234.385337,56.366672 235.344261,57.2263968 236.5512,57.8712 C237.758139,58.5160032 239.254391,58.8384 241.04,58.8384 Z M258.7968,40.04 L258.9456,40.04 C259.177068,39.2133292 259.598664,38.4362703 260.2104,37.7088 C260.822136,36.9813297 261.566129,36.3530693 262.4424,35.824 C263.318671,35.2949307 264.294128,34.8898681 265.3688,34.6088 C266.443472,34.3277319 267.559461,34.2037332 268.7168,34.2368 L268.7168,36.1216 C267.724795,35.9893327 266.592273,36.0885317 265.3192,36.4192 C264.046127,36.7498683 262.830939,37.4773277 261.6736,38.6016 C261.210664,39.0976025 260.805602,39.5770644 260.4584,40.04 C260.111198,40.5029356 259.821868,41.0154639 259.5904,41.5776 C259.358932,42.1397361 259.177067,42.7679965 259.0448,43.4624 C258.912533,44.1568035 258.829867,44.9834619 258.7968,45.9424 L258.7968,59.88 L256.912,59.88 L256.912,34.3856 L258.7968,34.3856 L258.7968,40.04 Z M268.9152,47.1328 C268.9152,45.3141242 269.171464,43.6029414 269.684,41.9992 C270.196536,40.3954586 270.948795,38.9818728 271.9408,37.7584 C272.932805,36.5349272 274.156259,35.5677369 275.6112,34.8568 C277.066141,34.1458631 278.735991,33.7904 280.6208,33.7904 C282.505609,33.7904 284.175459,34.1458631 285.6304,34.8568 C287.085341,35.5677369 288.308795,36.5349272 289.3008,37.7584 C290.292805,38.9818728 291.045064,40.3954586 291.5576,41.9992 C292.070136,43.6029414 292.3264,45.3141242 292.3264,47.1328 C292.3264,48.9514758 292.070136,50.6709252 291.5576,52.2912 C291.045064,53.9114748 290.292805,55.3250606 289.3008,56.532 C288.308795,57.7389394 287.085341,58.6978631 285.6304,59.4088 C284.175459,60.1197369 282.505609,60.4752 280.6208,60.4752 C278.735991,60.4752 277.066141,60.1197369 275.6112,59.4088 C274.156259,58.6978631 272.932805,57.7389394 271.9408,56.532 C270.948795,55.3250606 270.196536,53.9114748 269.684,52.2912 C269.171464,50.6709252 268.9152,48.9514758 268.9152,47.1328 Z M270.8,47.1328 C270.8,48.6538743 271.014931,50.1170596 271.4448,51.5224 C271.874669,52.9277404 272.502929,54.1759945 273.3296,55.2672 C274.156271,56.3584055 275.181327,57.2263968 276.4048,57.8712 C277.628273,58.5160032 279.033592,58.8384 280.6208,58.8384 C282.208008,58.8384 283.613327,58.5160032 284.8368,57.8712 C286.060273,57.2263968 287.085329,56.3584055 287.912,55.2672 C288.738671,54.1759945 289.366931,52.9277404 289.7968,51.5224 C290.226669,50.1170596 290.4416,48.6538743 290.4416,47.1328 C290.4416,45.6117257 290.226669,44.1485404 289.7968,42.7432 C289.366931,41.3378596 288.738671,40.0896055 287.912,38.9984 C287.085329,37.9071945 286.060273,37.0392032 284.8368,36.3944 C283.613327,35.7495968 282.208008,35.4272 280.6208,35.4272 C279.033592,35.4272 277.628273,35.7495968 276.4048,36.3944 C275.181327,37.0392032 274.156271,37.9071945 273.3296,38.9984 C272.502929,40.0896055 271.874669,41.3378596 271.4448,42.7432 C271.014931,44.1485404 270.8,45.6117257 270.8,47.1328 Z M306.4624,59.88 L304.1312,59.88 L293.864,34.3856 L296.0464,34.3856 L305.272,57.6976 L305.3712,57.6976 L314.0016,34.3856 L316.0848,34.3856 L306.4624,59.88 Z M319.2096,29.5744 L319.2096,24.4656 L321.0944,24.4656 L321.0944,29.5744 L319.2096,29.5744 Z M319.2096,59.88 L319.2096,34.3856 L321.0944,34.3856 L321.0944,59.88 L319.2096,59.88 Z M346.7872,54.424 L346.688,54.424 C345.629861,56.4410768 344.307208,57.9538616 342.72,58.9624 C341.132792,59.9709384 339.198411,60.4752 336.9168,60.4752 C334.998924,60.4752 333.345607,60.1114703 331.9568,59.384 C330.567993,58.6565297 329.427204,57.6810728 328.5344,56.4576 C327.641596,55.2341272 326.980269,53.8205414 326.5504,52.2168 C326.120531,50.6130586 325.9056,48.9349421 325.9056,47.1824 C325.9056,45.2975906 326.137064,43.5368082 326.6,41.9 C327.062936,40.2631918 327.765595,38.849606 328.708,37.6592 C329.650405,36.468794 330.832526,35.5264035 332.2544,34.832 C333.676274,34.1375965 335.346124,33.7904 337.264,33.7904 C338.289072,33.7904 339.297595,33.9309319 340.2896,34.212 C341.281605,34.4930681 342.199196,34.8981307 343.0424,35.4272 C343.885604,35.9562693 344.62133,36.617596 345.2496,37.4112 C345.87787,38.204804 346.357332,39.097595 346.688,40.0896 L346.7872,40.0896 L346.7872,24.4656 L348.672,24.4656 L348.672,59.88 L346.7872,59.88 L346.7872,54.424 Z M337.3136,58.8384 C338.933875,58.8384 340.330927,58.5077366 341.5048,57.8464 C342.678673,57.1850634 343.654129,56.3088055 344.4312,55.2176 C345.208271,54.1263945 345.786931,52.8781404 346.1672,51.4728 C346.547469,50.0674596 346.7376,48.6373406 346.7376,47.1824 C346.7376,45.6943926 346.547469,44.2477404 346.1672,42.8424 C345.786931,41.4370596 345.216537,40.1805389 344.456,39.0728 C343.695463,37.9650611 342.711739,37.0805366 341.5048,36.4192 C340.297861,35.7578634 338.884275,35.4272 337.264,35.4272 C335.577592,35.4272 334.139206,35.7495968 332.9488,36.3944 C331.758394,37.0392032 330.774671,37.9071945 329.9976,38.9984 C329.220529,40.0896055 328.658402,41.3461262 328.3112,42.768 C327.963998,44.1898738 327.7904,45.6613257 327.7904,47.1824 C327.7904,48.6704074 327.980531,50.1170596 328.3608,51.5224 C328.741069,52.9277404 329.319729,54.1759945 330.0968,55.2672 C330.873871,56.3584055 331.857594,57.2263968 333.048,57.8712 C334.238406,58.5160032 335.660258,58.8384 337.3136,58.8384 Z M355.4176,47.3808 L355.4176,47.6784 C355.4176,49.1664074 355.615998,50.5882599 356.0128,51.944 C356.409602,53.2997401 356.996529,54.4901282 357.7736,55.5152 C358.550671,56.5402718 359.526127,57.350397 360.7,57.9456 C361.873873,58.540803 363.237859,58.8384 364.792,58.8384 C367.338146,58.8384 369.355193,58.1688067 370.8432,56.8296 C372.331207,55.4903933 373.356264,53.6304119 373.9184,51.2496 L375.8032,51.2496 C375.241064,54.2256149 374.025876,56.5071921 372.1576,58.0944 C370.289324,59.6816079 367.817615,60.4752 364.7424,60.4752 C362.857591,60.4752 361.21254,60.1362701 359.8072,59.4584 C358.40186,58.7805299 357.228005,57.8546725 356.2856,56.6808 C355.343195,55.5069275 354.640536,54.1181414 354.1776,52.5144 C353.714664,50.9106586 353.4832,49.1829426 353.4832,47.3312 C353.4832,45.5455911 353.722931,43.8344082 354.2024,42.1976 C354.681869,40.5607918 355.401062,39.1224062 356.36,37.8824 C357.318938,36.6423938 358.517593,35.6504037 359.956,34.9064 C361.394407,34.1623963 363.089057,33.7904 365.04,33.7904 C366.825609,33.7904 368.404526,34.1210634 369.7768,34.7824 C371.149074,35.4437366 372.298129,36.3447943 373.224,37.4856 C374.149871,38.6264057 374.852531,39.9490591 375.332,41.4536 C375.811469,42.9581409 376.0512,44.5701247 376.0512,46.2896 C376.0512,46.4549342 376.042933,46.6450656 376.0264,46.86 C376.009867,47.0749344 376.0016,47.2485327 376.0016,47.3808 L355.4176,47.3808 Z M374.1168,45.744 C374.050666,44.3551931 373.819202,43.0408062 373.4224,41.8008 C373.025598,40.5607938 372.438671,39.4696047 371.6616,38.5272 C370.884529,37.5847953 369.942139,36.8325361 368.8344,36.2704 C367.726661,35.7082639 366.461874,35.4272 365.04,35.4272 C363.518926,35.4272 362.179739,35.7165304 361.0224,36.2952 C359.865061,36.8738696 358.889604,37.6343953 358.096,38.5768 C357.302396,39.5192047 356.690669,40.6186604 356.2608,41.8752 C355.830931,43.1317396 355.5664,44.4213267 355.4672,45.744 L374.1168,45.744 Z" id="node-provide" fill="#FFFFFF"></path>
        </g>
    </g>
</svg>