<?xml version="1.0" encoding="UTF-8"?>
<svg width="718px" height="770px" viewBox="0 0 718 770" version="1.1" xmlns="http://www.w3.org/2000/svg" xmlns:xlink="http://www.w3.org/1999/xlink">
    <!-- Generator: Sketch 52.6 (67491) - http://www.bohemiancoding.com/sketch -->
    <title>Group 2</title>
    <desc>Created with Sketch.</desc>
    <g id="Page-1" stroke="none" stroke-width="1" fill="none" fill-rule="evenodd" stroke-linejoin="round" stroke-opacity="0.8">
        <g id="Group-2" transform="translate(0.000000, 1.000000)">
            <path d="M512.563724,383.976223 C512.563724,468.805066 443.79636,537.57243 358.967517,537.57243 C274.138674,537.57243 205.37131,468.805066 205.37131,383.976223 C205.37131,299.14738 274.138674,230.380016 358.967517,230.380016 C443.79636,230.380016 512.563724,299.14738 512.563724,383.976223 Z" id="Path" stroke="#616161" stroke-width="0.5" stroke-dasharray="0.5,3"></path>
            <path d="M512.563724,230.380016 C512.563724,315.208859 443.79636,383.976223 358.967517,383.976223 C274.138674,383.976223 205.37131,315.208859 205.37131,230.380016 C205.37131,145.551173 274.138674,76.7838089 358.967517,76.7838089 C443.79636,76.7838089 512.563724,145.551173 512.563724,230.380016 Z" id="Path" stroke="#616161" stroke-width="0.5" stroke-dasharray="0.5,3"></path>
            <path d="M645.581941,307.178119 C645.581941,392.006962 576.814577,460.774326 491.985734,460.774326 C407.156891,460.774326 338.389527,392.006962 338.389527,307.178119 C338.389527,222.349277 407.156891,153.581912 491.985734,153.581912 C576.814577,153.581912 645.581941,222.349277 645.581941,307.178119 Z" id="Path" stroke="#616161" stroke-width="0.5" stroke-dasharray="0.5,3"></path>
            <path d="M645.581941,460.774326 C645.581941,545.603169 576.814577,614.370534 491.985734,614.370534 C407.156891,614.370534 338.389527,545.603169 338.389527,460.774326 C338.389527,375.945484 407.156891,307.178119 491.985734,307.178119 C576.814577,307.178119 645.581941,375.945484 645.581941,460.774326 Z" id="Path" stroke="#616161" stroke-width="0.5" stroke-dasharray="0.5,3"></path>
            <path d="M512.563724,537.57243 C512.563724,622.401273 443.79636,691.168637 358.967517,691.168637 C274.138674,691.168637 205.37131,622.401273 205.37131,537.57243 C205.37131,452.743587 274.138674,383.976223 358.967517,383.976223 C443.79636,383.976223 512.563724,452.743587 512.563724,537.57243 Z" id="Path" stroke="#616161" stroke-width="0.5" stroke-dasharray="0.5,3"></path>
            <path d="M379.545507,460.774326 C379.545507,545.603169 310.778143,614.370534 225.9493,614.370534 C141.120457,614.370534 72.3530927,545.603169 72.3530927,460.774326 C72.3530927,375.945484 141.120457,307.178119 225.9493,307.178119 C310.778143,307.178119 379.545507,375.945484 379.545507,460.774326 Z" id="Path" stroke="#616161" stroke-width="0.5" stroke-dasharray="0.5,3"></path>
            <path d="M435.814741,383.976223 C435.814741,426.417773 401.409067,460.823447 358.967517,460.823447 C316.525967,460.823447 282.120293,426.417773 282.120293,383.976223 C282.120293,341.534673 316.525967,307.128999 358.967517,307.128999 C401.409067,307.128999 435.814741,341.534673 435.814741,383.976223 Z" id="Path" stroke="#DB6114" stroke-width="2.5" stroke-linecap="round"></path>
            <path d="M474.189233,383.976223 C474.189233,447.611419 422.602713,499.197939 358.967517,499.197939 C295.332321,499.197939 243.745801,447.611419 243.745801,383.976223 C243.745801,320.341027 295.332321,268.754507 358.967517,268.754507 C422.602713,268.754507 474.189233,320.341027 474.189233,383.976223 Z" id="Path" stroke="#616161" stroke-width="0.5" stroke-dasharray="0.5,3"></path>
            <path d="M397.342008,537.57243 C397.342008,558.766076 380.161163,575.946921 358.967517,575.946921 C337.773871,575.946921 320.593026,558.766076 320.593026,537.57243 C320.593026,516.378784 337.773871,499.197939 358.967517,499.197939 C380.161163,499.197939 397.342008,516.378784 397.342008,537.57243 Z" id="Path" stroke="#616161" stroke-width="0.5" stroke-dasharray="0.5,3"></path>
            <path d="M550.938215,383.976223 C550.938215,489.998712 464.990006,575.946921 358.967517,575.946921 C252.945028,575.946921 166.996819,489.998712 166.996819,383.976223 C166.996819,277.953734 252.945028,192.005525 358.967517,192.005525 C464.990006,192.005525 550.938215,277.953734 550.938215,383.976223 Z" id="Path" stroke="#616161" stroke-width="0.5" stroke-dasharray="0.5,3"></path>
            <path d="M550.938215,192.005525 C550.938215,298.028014 464.990006,383.976223 358.967517,383.976223 C252.945028,383.976223 166.996819,298.028014 166.996819,192.005525 C166.996819,85.9830354 252.945028,0.0348261843 358.967517,0.0348261843 C464.990006,0.0348261843 550.938215,85.9830354 550.938215,192.005525 Z" id="Path" stroke="#616161" stroke-width="0.5" stroke-dasharray="0.5,3"></path>
            <path d="M384.686714,287.990874 C384.686714,394.013363 298.738505,479.961572 192.716015,479.961572 C86.6935263,479.961572 0.745317008,394.013363 0.745317008,287.990874 C0.745317008,181.968385 86.6935263,96.0201754 192.716015,96.0201754 C298.738505,96.0201754 384.686714,181.968385 384.686714,287.990874 Z" id="Path" stroke="#616161" stroke-width="0.5" stroke-dasharray="0.5,3"></path>
            <path d="M384.686714,479.961572 C384.686714,585.984061 298.738505,671.932271 192.716015,671.932271 C86.6935263,671.932271 0.745317008,585.984061 0.745317008,479.961572 C0.745317008,373.939083 86.6935263,287.990874 192.716015,287.990874 C298.738505,287.990874 384.686714,373.939083 384.686714,479.961572 Z" id="Path" stroke="#616161" stroke-width="0.5" stroke-dasharray="0.5,3"></path>
            <path d="M550.938215,575.946921 C550.938215,681.96941 464.990006,767.91762 358.967517,767.91762 C252.945028,767.91762 166.996819,681.96941 166.996819,575.946921 C166.996819,469.924432 252.945028,383.976223 358.967517,383.976223 C464.990006,383.976223 550.938215,469.924432 550.938215,575.946921 Z" id="Path" stroke="#616161" stroke-width="0.5" stroke-dasharray="0.5,3"></path>
            <path d="M717.189717,479.961572 C717.189717,585.984061 631.241508,671.932271 525.219019,671.932271 C419.196529,671.932271 333.24832,585.984061 333.24832,479.961572 C333.24832,373.939083 419.196529,287.990874 525.219019,287.990874 C631.241508,287.990874 717.189717,373.939083 717.189717,479.961572 Z" id="Path" stroke="#616161" stroke-width="0.5" stroke-dasharray="0.5,3"></path>
            <path d="M717.189717,287.990874 C717.189717,394.013363 631.241508,479.961572 525.219019,479.961572 C419.196529,479.961572 333.24832,394.013363 333.24832,287.990874 C333.24832,181.968385 419.196529,96.0201754 525.219019,96.0201754 C631.241508,96.0201754 717.189717,181.968385 717.189717,287.990874 Z" id="Path" stroke="#616161" stroke-width="0.5" stroke-dasharray="0.5,3"></path>
            <path d="M530.360226,460.774326 C530.360226,481.967973 513.179381,499.148818 491.985734,499.148818 C470.792088,499.148818 453.611243,481.967973 453.611243,460.774326 C453.611243,439.58068 470.792088,422.399835 491.985734,422.399835 C513.179381,422.399835 530.360226,439.58068 530.360226,460.774326 Z" id="Path" stroke="#616161" stroke-width="0.5" stroke-dasharray="0.5,3"></path>
            <path d="M483.237847,460.774326 C483.237847,481.967973 466.057002,499.148818 444.863355,499.148818 C423.669709,499.148818 406.488864,481.967973 406.488864,460.774326 C406.488864,439.58068 423.669709,422.399835 444.863355,422.399835 C466.057002,422.399835 483.237847,439.58068 483.237847,460.774326 Z" id="Path" stroke="#616161" stroke-width="0.5" stroke-dasharray="0.5,3"></path>
            <path d="M506.000966,422.41317 C506.000966,443.627467 488.803381,460.825052 467.589084,460.825052 C446.374787,460.825052 429.177202,443.627467 429.177202,422.41317 C429.177202,401.198873 446.374787,384.001288 467.589084,384.001288 C488.803381,384.001288 506.000966,401.198873 506.000966,422.41317 Z" id="Path" stroke="#616161" stroke-width="0.5" stroke-dasharray="0.5,3"></path>
            <path d="M503.101048,437.054657 C528.880469,367.051103 500.632738,288.646079 436.130318,251.169232 C371.627899,213.692384 289.523641,227.98129 241.474615,285.045879 C193.42559,342.110468 193.326644,425.448769 241.24003,482.627293 C289.153416,539.805817 371.223513,554.289645 435.814741,516.966068" id="Path" stroke="#DB6114" stroke-width="2.5" stroke-linecap="round"></path>
            <path d="M431.862624,408.303149 C424.110951,427.930323 433.644131,450.135494 453.21293,458.033373 C472.781729,465.931253 495.057401,456.563992 503.101048,437.054657" id="Path" stroke="#DB6114" stroke-width="2.5" stroke-linecap="round"></path>
            <path d="M379.545507,307.178119 C379.545507,392.006962 310.778143,460.774326 225.9493,460.774326 C141.120457,460.774326 72.3530927,392.006962 72.3530927,307.178119 C72.3530927,222.349277 141.120457,153.581912 225.9493,153.581912 C310.778143,153.581912 379.545507,222.349277 379.545507,307.178119 Z" id="Path" stroke="#616161" stroke-width="0.5" stroke-dasharray="0.5,3"></path>
            <path d="M282.178497,698 L282.178497,54" id="Path" stroke="#616161" stroke-width="0.5" stroke-dasharray="0.5,3"></path>
            <path d="M67,307.128999 L654,307.128999" id="Path" stroke="#616161" stroke-width="0.5" stroke-dasharray="0.5,3"></path>
            <path d="M435.814741,698 L435.814741,54" id="Path" stroke="#616161" stroke-width="0.5" stroke-dasharray="0.5,3"></path>
            <path d="M358.967517,698 L358.967517,54" id="Path" stroke="#616161" stroke-width="0.5" stroke-dasharray="0.5,3"></path>
            <path d="M67,422.41317 L654,422.41317" id="Path" stroke="#616161" stroke-width="0.5" stroke-dasharray="0.5,3"></path>
            <path d="M358.967517,230.380016 L491.985734,460.774326" id="Path" stroke="#616161" stroke-width="0.5" stroke-dasharray="0.5,3"></path>
            <path d="M491.985734,460.774326 L225.9493,460.774326" id="Path" stroke="#616161" stroke-width="0.5" stroke-dasharray="0.5,3"></path>
            <path d="M225.9493,460.774326 L358.967517,230.380016" id="Path" stroke="#616161" stroke-width="0.5" stroke-dasharray="0.5,3"></path>
            <path d="M435.814741,383.976223 L512.563724,383.976223" id="Path" stroke="#616161" stroke-width="0.5" stroke-dasharray="0.5,3"></path>
            <path d="M282.178497,559.919951 L282.178497,307.128999" id="Path" stroke="#DB6114" stroke-width="2.5" stroke-linecap="round"></path>
            <path d="M358.967517,192.005525 L525.219019,287.990874" id="Path" stroke="#2E7D32" stroke-width="2.5" stroke-linecap="round"></path>
            <path d="M525.219019,287.990874 L525.219019,479.961572" id="Path" stroke="#2E7D32" stroke-width="2.5" stroke-linecap="round"></path>
            <path d="M525.219019,479.961572 L358.967517,575.946921" id="Path" stroke="#2E7D32" stroke-width="2.5" stroke-linecap="round"></path>
            <path d="M358.967517,575.946921 L192.716015,479.961572" id="Path" stroke="#2E7D32" stroke-width="2.5" stroke-linecap="round"></path>
            <path d="M192.716015,479.961572 L192.716015,287.990874" id="Path" stroke="#2E7D32" stroke-width="2.5" stroke-linecap="round"></path>
            <path d="M192.716015,287.990874 L358.967517,192.005525" id="Path" stroke="#2E7D32" stroke-width="2.5" stroke-linecap="round"></path>
        </g>
    </g>
</svg>