<?xml version="1.0" encoding="UTF-8"?>
<svg width="132px" height="132px" viewBox="0 0 132 132" version="1.1" xmlns="http://www.w3.org/2000/svg" xmlns:xlink="http://www.w3.org/1999/xlink">
    <!-- Generator: Sketch 52.6 (67491) - http://www.bohemiancoding.com/sketch -->
    <title>logo_1 copy 2</title>
    <desc>Created with Sketch.</desc>
    <g id="Page-4" stroke="none" stroke-width="1" fill="none" fill-rule="evenodd">
        <g id="logo_1-copy-2">
            <polygon id="Path" stroke="#932210" stroke-width="1.25" fill="#932210" points="65.9681553 1 122.778852 33.4698666 122.778852 98.4095999 65.9681553 130.879466 122.778852 98.4095999 65.9681553 130.879466 9.15745856 98.4095999 9.15745856 33.4698666"></polygon>
            <path d="M92.2280346,65.9397333 C92.2280346,80.2968355 80.4710862,91.9355665 65.9681553,91.9355665 C51.4652245,91.9355665 39.7082761,80.2968355 39.7082761,65.9397333 C39.7082761,51.582631 51.4652245,39.9439001 65.9681553,39.9439001 C80.4710862,39.9439001 92.2280346,51.582631 92.2280346,65.9397333 Z" id="Path" stroke="#FFFFFF" stroke-width="3.75"></path>
            <path d="M115.220801,83.8950744 C124.030026,60.2143138 114.377342,33.6915093 92.3358721,21.0138636 C70.2944028,8.33621795 42.2381141,13.1698605 25.8190226,32.4736356 C9.39993112,51.7774108 9.36611959,79.9690413 25.738861,99.3113583 C42.1116025,118.653675 70.1562176,123.553256 92.2280346,110.927459" id="Path" stroke="#FFFFFF" stroke-width="3.75"></path>
            <path d="M90.8775351,74.1690312 C88.2286692,80.8084999 91.4863036,88.320052 98.1732634,90.9917419 C104.860223,93.6634319 112.472163,90.4946805 115.220801,83.8950744" id="Path" stroke="#FFFFFF" stroke-width="3.75"></path>
            <path d="M39.7281655,125.457873 L39.7281655,39.9439001" id="Path" stroke="#FFFFFF" stroke-width="3.75"></path>
        </g>
    </g>
</svg>