<?xml version="1.0" encoding="UTF-8"?>
<svg width="882px" height="145px" viewBox="0 0 882 145" version="1.1" xmlns="http://www.w3.org/2000/svg" xmlns:xlink="http://www.w3.org/1999/xlink">
    <!-- Generator: Sketch 52.6 (67491) - http://www.bohemiancoding.com/sketch -->
    <title>Group</title>
    <desc>Created with Sketch.</desc>
    <g id="Page-2" stroke="none" stroke-width="1" fill="none" fill-rule="evenodd">
        <g id="Group">
            <rect id="Rectangle" fill="#20232A" x="0" y="0" width="882" height="145"></rect>
            <g id="Group-2" transform="translate(30.000000, 31.000000)">
                <g id="logo">
                    <polygon id="Path" stroke="#932210" stroke-width="0.8" fill="#932210" points="36.4596194 0 72.8184653 20.7807146 72.8184653 62.3421439 36.4596194 83.1228582 72.8184653 62.3421439 36.4596194 83.1228582 0.100773478 62.3421439 0.100773478 20.7807146"></polygon>
                    <path d="M53.2659421,41.5614293 C53.2659421,50.7499747 45.7414952,58.1987626 36.4596194,58.1987626 C27.1777437,58.1987626 19.6532967,50.7499747 19.6532967,41.5614293 C19.6532967,32.3728838 27.1777437,24.9240961 36.4596194,24.9240961 C45.7414952,24.9240961 53.2659421,32.3728838 53.2659421,41.5614293 Z" id="Path" stroke="#FFFFFF" stroke-width="2.4"></path>
                    <path d="M67.9813126,53.0528476 C73.6192166,37.8971608 67.4414989,20.922566 53.3349581,12.8088727 C39.2284178,4.69517949 21.272393,7.78871072 10.7641745,20.1431268 C0.255955917,32.4975429 0.234316538,50.5401864 10.712871,62.9192693 C21.1914256,75.298352 39.1399793,78.4340838 53.2659421,70.3535738" id="Path" stroke="#FFFFFF" stroke-width="2.4"></path>
                    <path d="M52.4016225,46.82818 C50.7063483,51.0774399 52.7912343,55.8848333 57.0708886,57.5947148 C61.3505427,59.3045964 66.2221843,57.2765955 67.9813126,53.0528476" id="Path" stroke="#FFFFFF" stroke-width="2.4"></path>
                    <path d="M19.6660259,79.6530387 L19.6660259,24.9240961" id="Path" stroke="#FFFFFF" stroke-width="2.4"></path>
                </g>
                <path d="M105.1776,33.3856 L107.0624,33.3856 L107.0624,38.8416 L107.1616,38.8416 C107.492268,37.8826619 107.963464,37.0312037 108.5752,36.2872 C109.186936,35.5431963 109.897863,34.9066693 110.708,34.3776 C111.518137,33.8485307 112.402662,33.4517347 113.3616,33.1872 C114.320538,32.9226653 115.295995,32.7904 116.288,32.7904 C117.776007,32.7904 119.040795,32.9722648 120.0824,33.336 C121.124005,33.6997352 121.975463,34.179197 122.6368,34.7744 C123.298137,35.369603 123.818931,36.0391963 124.1992,36.7832 C124.579469,37.5272037 124.852266,38.2794629 125.0176,39.04 C125.182934,39.8005371 125.282133,40.5362631 125.3152,41.2472 C125.348267,41.9581369 125.3648,42.5781307 125.3648,43.1072 L125.3648,58.88 L123.48,58.88 L123.48,42.76 C123.48,42.1317302 123.4304,41.3381381 123.3312,40.3792 C123.232,39.4202619 122.942669,38.502671 122.4632,37.6264 C121.983731,36.750129 121.256272,35.9978698 120.2808,35.3696 C119.305328,34.7413302 117.957875,34.4272 116.2384,34.4272 C114.783459,34.4272 113.493872,34.6917307 112.3696,35.2208 C111.245328,35.7498693 110.286404,36.4855953 109.4928,37.428 C108.699196,38.3704047 108.095735,39.4946601 107.6824,40.8008 C107.269065,42.1069399 107.0624,43.5370589 107.0624,45.0912 L107.0624,58.88 L105.1776,58.88 L105.1776,33.3856 Z M129.7296,46.1328 C129.7296,44.3141242 129.985864,42.6029414 130.4984,40.9992 C131.010936,39.3954586 131.763195,37.9818728 132.7552,36.7584 C133.747205,35.5349272 134.970659,34.5677369 136.4256,33.8568 C137.880541,33.1458631 139.550391,32.7904 141.4352,32.7904 C143.320009,32.7904 144.989859,33.1458631 146.4448,33.8568 C147.899741,34.5677369 149.123195,35.5349272 150.1152,36.7584 C151.107205,37.9818728 151.859464,39.3954586 152.372,40.9992 C152.884536,42.6029414 153.1408,44.3141242 153.1408,46.1328 C153.1408,47.9514758 152.884536,49.6709252 152.372,51.2912 C151.859464,52.9114748 151.107205,54.3250606 150.1152,55.532 C149.123195,56.7389394 147.899741,57.6978631 146.4448,58.4088 C144.989859,59.1197369 143.320009,59.4752 141.4352,59.4752 C139.550391,59.4752 137.880541,59.1197369 136.4256,58.4088 C134.970659,57.6978631 133.747205,56.7389394 132.7552,55.532 C131.763195,54.3250606 131.010936,52.9114748 130.4984,51.2912 C129.985864,49.6709252 129.7296,47.9514758 129.7296,46.1328 Z M131.6144,46.1328 C131.6144,47.6538743 131.829331,49.1170596 132.2592,50.5224 C132.689069,51.9277404 133.317329,53.1759945 134.144,54.2672 C134.970671,55.3584055 135.995727,56.2263968 137.2192,56.8712 C138.442673,57.5160032 139.847992,57.8384 141.4352,57.8384 C143.022408,57.8384 144.427727,57.5160032 145.6512,56.8712 C146.874673,56.2263968 147.899729,55.3584055 148.7264,54.2672 C149.553071,53.1759945 150.181331,51.9277404 150.6112,50.5224 C151.041069,49.1170596 151.256,47.6538743 151.256,46.1328 C151.256,44.6117257 151.041069,43.1485404 150.6112,41.7432 C150.181331,40.3378596 149.553071,39.0896055 148.7264,37.9984 C147.899729,36.9071945 146.874673,36.0392032 145.6512,35.3944 C144.427727,34.7495968 143.022408,34.4272 141.4352,34.4272 C139.847992,34.4272 138.442673,34.7495968 137.2192,35.3944 C135.995727,36.0392032 134.970671,36.9071945 134.144,37.9984 C133.317329,39.0896055 132.689069,40.3378596 132.2592,41.7432 C131.829331,43.1485404 131.6144,44.6117257 131.6144,46.1328 Z M177.2464,53.424 L177.1472,53.424 C176.089061,55.4410768 174.766408,56.9538616 173.1792,57.9624 C171.591992,58.9709384 169.657611,59.4752 167.376,59.4752 C165.458124,59.4752 163.804807,59.1114703 162.416,58.384 C161.027193,57.6565297 159.886404,56.6810728 158.9936,55.4576 C158.100796,54.2341272 157.439469,52.8205414 157.0096,51.2168 C156.579731,49.6130586 156.3648,47.9349421 156.3648,46.1824 C156.3648,44.2975906 156.596264,42.5368082 157.0592,40.9 C157.522136,39.2631918 158.224795,37.849606 159.1672,36.6592 C160.109605,35.468794 161.291726,34.5264035 162.7136,33.832 C164.135474,33.1375965 165.805324,32.7904 167.7232,32.7904 C168.748272,32.7904 169.756795,32.9309319 170.7488,33.212 C171.740805,33.4930681 172.658396,33.8981307 173.5016,34.4272 C174.344804,34.9562693 175.08053,35.617596 175.7088,36.4112 C176.33707,37.204804 176.816532,38.097595 177.1472,39.0896 L177.2464,39.0896 L177.2464,23.4656 L179.1312,23.4656 L179.1312,58.88 L177.2464,58.88 L177.2464,53.424 Z M167.7728,57.8384 C169.393075,57.8384 170.790127,57.5077366 171.964,56.8464 C173.137873,56.1850634 174.113329,55.3088055 174.8904,54.2176 C175.667471,53.1263945 176.246131,51.8781404 176.6264,50.4728 C177.006669,49.0674596 177.1968,47.6373406 177.1968,46.1824 C177.1968,44.6943926 177.006669,43.2477404 176.6264,41.8424 C176.246131,40.4370596 175.675737,39.1805389 174.9152,38.0728 C174.154663,36.9650611 173.170939,36.0805366 171.964,35.4192 C170.757061,34.7578634 169.343475,34.4272 167.7232,34.4272 C166.036792,34.4272 164.598406,34.7495968 163.408,35.3944 C162.217594,36.0392032 161.233871,36.9071945 160.4568,37.9984 C159.679729,39.0896055 159.117602,40.3461262 158.7704,41.768 C158.423198,43.1898738 158.2496,44.6613257 158.2496,46.1824 C158.2496,47.6704074 158.439731,49.1170596 158.82,50.5224 C159.200269,51.9277404 159.778929,53.1759945 160.556,54.2672 C161.333071,55.3584055 162.316794,56.2263968 163.5072,56.8712 C164.697606,57.5160032 166.119458,57.8384 167.7728,57.8384 Z M185.8768,46.3808 L185.8768,46.6784 C185.8768,48.1664074 186.075198,49.5882599 186.472,50.944 C186.868802,52.2997401 187.455729,53.4901282 188.2328,54.5152 C189.009871,55.5402718 189.985327,56.350397 191.1592,56.9456 C192.333073,57.540803 193.697059,57.8384 195.2512,57.8384 C197.797346,57.8384 199.814393,57.1688067 201.3024,55.8296 C202.790407,54.4903933 203.815464,52.6304119 204.3776,50.2496 L206.2624,50.2496 C205.700264,53.2256149 204.485076,55.5071921 202.6168,57.0944 C200.748524,58.6816079 198.276815,59.4752 195.2016,59.4752 C193.316791,59.4752 191.67174,59.1362701 190.2664,58.4584 C188.86106,57.7805299 187.687205,56.8546725 186.7448,55.6808 C185.802395,54.5069275 185.099736,53.1181414 184.6368,51.5144 C184.173864,49.9106586 183.9424,48.1829426 183.9424,46.3312 C183.9424,44.5455911 184.182131,42.8344082 184.6616,41.1976 C185.141069,39.5607918 185.860262,38.1224062 186.8192,36.8824 C187.778138,35.6423938 188.976793,34.6504037 190.4152,33.9064 C191.853607,33.1623963 193.548257,32.7904 195.4992,32.7904 C197.284809,32.7904 198.863726,33.1210634 200.236,33.7824 C201.608274,34.4437366 202.757329,35.3447943 203.6832,36.4856 C204.609071,37.6264057 205.311731,38.9490591 205.7912,40.4536 C206.270669,41.9581409 206.5104,43.5701247 206.5104,45.2896 C206.5104,45.4549342 206.502133,45.6450656 206.4856,45.86 C206.469067,46.0749344 206.4608,46.2485327 206.4608,46.3808 L185.8768,46.3808 Z M204.576,44.744 C204.509866,43.3551931 204.278402,42.0408062 203.8816,40.8008 C203.484798,39.5607938 202.897871,38.4696047 202.1208,37.5272 C201.343729,36.5847953 200.401339,35.8325361 199.2936,35.2704 C198.185861,34.7082639 196.921074,34.4272 195.4992,34.4272 C193.978126,34.4272 192.638939,34.7165304 191.4816,35.2952 C190.324261,35.8738696 189.348804,36.6343953 188.5552,37.5768 C187.761596,38.5192047 187.149869,39.6186604 186.72,40.8752 C186.290131,42.1317396 186.0256,43.4213267 185.9264,44.744 L204.576,44.744 Z M211.52,44.4464 L222.1344,44.4464 L222.1344,46.3312 L211.52,46.3312 L211.52,44.4464 Z M230.6656,39.2384 L230.7648,39.2384 C230.963201,38.6101302 231.293864,37.9157371 231.7568,37.1552 C232.219736,36.3946629 232.831463,35.6920032 233.592,35.0472 C234.352537,34.4023968 235.270128,33.8650688 236.3448,33.4352 C237.419472,33.0053312 238.651193,32.7904 240.04,32.7904 C241.990943,32.7904 243.685593,33.1541297 245.124,33.8816 C246.562407,34.6090703 247.752795,35.5845272 248.6952,36.808 C249.637605,38.0314728 250.340264,39.4533252 250.8032,41.0736 C251.266136,42.6938748 251.4976,44.3967911 251.4976,46.1824 C251.4976,48.1333431 251.266136,49.9189252 250.8032,51.5392 C250.340264,53.1594748 249.637605,54.5565275 248.6952,55.7304 C247.752795,56.9042725 246.562407,57.8218634 245.124,58.4832 C243.685593,59.1445366 241.990943,59.4752 240.04,59.4752 C237.923723,59.4752 236.038942,59.0122713 234.3856,58.0864 C232.732258,57.1605287 231.525337,55.6560104 230.7648,53.5728 L230.6656,53.5728 L230.6656,68.0064 L228.7808,68.0064 L228.7808,33.3856 L230.6656,33.3856 L230.6656,39.2384 Z M240.04,57.8384 C241.693342,57.8384 243.123461,57.5242698 244.3304,56.896 C245.537339,56.2677302 246.529329,55.4245386 247.3064,54.3664 C248.083471,53.3082614 248.662131,52.0765404 249.0424,50.6712 C249.422669,49.2658596 249.6128,47.7696079 249.6128,46.1824 C249.6128,44.7274594 249.430935,43.2973404 249.0672,41.892 C248.703465,40.4866596 248.141337,39.2301389 247.3808,38.1224 C246.620263,37.0146611 245.636539,36.1218701 244.4296,35.444 C243.222661,34.7661299 241.759475,34.4272 240.04,34.4272 C238.353592,34.4272 236.915206,34.7578634 235.7248,35.4192 C234.534394,36.0805366 233.567204,36.9567945 232.8232,38.048 C232.079196,39.1392055 231.541868,40.3874596 231.2112,41.7928 C230.880532,43.1981404 230.7152,44.6613257 230.7152,46.1824 C230.7152,47.7034743 230.863999,49.1666596 231.1616,50.572 C231.459201,51.9773404 231.963463,53.217328 232.6744,54.292 C233.385337,55.366672 234.344261,56.2263968 235.5512,56.8712 C236.758139,57.5160032 238.254391,57.8384 240.04,57.8384 Z M257.7968,39.04 L257.9456,39.04 C258.177068,38.2133292 258.598664,37.4362703 259.2104,36.7088 C259.822136,35.9813297 260.566129,35.3530693 261.4424,34.824 C262.318671,34.2949307 263.294128,33.8898681 264.3688,33.6088 C265.443472,33.3277319 266.559461,33.2037332 267.7168,33.2368 L267.7168,35.1216 C266.724795,34.9893327 265.592273,35.0885317 264.3192,35.4192 C263.046127,35.7498683 261.830939,36.4773277 260.6736,37.6016 C260.210664,38.0976025 259.805602,38.5770644 259.4584,39.04 C259.111198,39.5029356 258.821868,40.0154639 258.5904,40.5776 C258.358932,41.1397361 258.177067,41.7679965 258.0448,42.4624 C257.912533,43.1568035 257.829867,43.9834619 257.7968,44.9424 L257.7968,58.88 L255.912,58.88 L255.912,33.3856 L257.7968,33.3856 L257.7968,39.04 Z M267.9152,46.1328 C267.9152,44.3141242 268.171464,42.6029414 268.684,40.9992 C269.196536,39.3954586 269.948795,37.9818728 270.9408,36.7584 C271.932805,35.5349272 273.156259,34.5677369 274.6112,33.8568 C276.066141,33.1458631 277.735991,32.7904 279.6208,32.7904 C281.505609,32.7904 283.175459,33.1458631 284.6304,33.8568 C286.085341,34.5677369 287.308795,35.5349272 288.3008,36.7584 C289.292805,37.9818728 290.045064,39.3954586 290.5576,40.9992 C291.070136,42.6029414 291.3264,44.3141242 291.3264,46.1328 C291.3264,47.9514758 291.070136,49.6709252 290.5576,51.2912 C290.045064,52.9114748 289.292805,54.3250606 288.3008,55.532 C287.308795,56.7389394 286.085341,57.6978631 284.6304,58.4088 C283.175459,59.1197369 281.505609,59.4752 279.6208,59.4752 C277.735991,59.4752 276.066141,59.1197369 274.6112,58.4088 C273.156259,57.6978631 271.932805,56.7389394 270.9408,55.532 C269.948795,54.3250606 269.196536,52.9114748 268.684,51.2912 C268.171464,49.6709252 267.9152,47.9514758 267.9152,46.1328 Z M269.8,46.1328 C269.8,47.6538743 270.014931,49.1170596 270.4448,50.5224 C270.874669,51.9277404 271.502929,53.1759945 272.3296,54.2672 C273.156271,55.3584055 274.181327,56.2263968 275.4048,56.8712 C276.628273,57.5160032 278.033592,57.8384 279.6208,57.8384 C281.208008,57.8384 282.613327,57.5160032 283.8368,56.8712 C285.060273,56.2263968 286.085329,55.3584055 286.912,54.2672 C287.738671,53.1759945 288.366931,51.9277404 288.7968,50.5224 C289.226669,49.1170596 289.4416,47.6538743 289.4416,46.1328 C289.4416,44.6117257 289.226669,43.1485404 288.7968,41.7432 C288.366931,40.3378596 287.738671,39.0896055 286.912,37.9984 C286.085329,36.9071945 285.060273,36.0392032 283.8368,35.3944 C282.613327,34.7495968 281.208008,34.4272 279.6208,34.4272 C278.033592,34.4272 276.628273,34.7495968 275.4048,35.3944 C274.181327,36.0392032 273.156271,36.9071945 272.3296,37.9984 C271.502929,39.0896055 270.874669,40.3378596 270.4448,41.7432 C270.014931,43.1485404 269.8,44.6117257 269.8,46.1328 Z M305.4624,58.88 L303.1312,58.88 L292.864,33.3856 L295.0464,33.3856 L304.272,56.6976 L304.3712,56.6976 L313.0016,33.3856 L315.0848,33.3856 L305.4624,58.88 Z M318.2096,28.5744 L318.2096,23.4656 L320.0944,23.4656 L320.0944,28.5744 L318.2096,28.5744 Z M318.2096,58.88 L318.2096,33.3856 L320.0944,33.3856 L320.0944,58.88 L318.2096,58.88 Z M345.7872,53.424 L345.688,53.424 C344.629861,55.4410768 343.307208,56.9538616 341.72,57.9624 C340.132792,58.9709384 338.198411,59.4752 335.9168,59.4752 C333.998924,59.4752 332.345607,59.1114703 330.9568,58.384 C329.567993,57.6565297 328.427204,56.6810728 327.5344,55.4576 C326.641596,54.2341272 325.980269,52.8205414 325.5504,51.2168 C325.120531,49.6130586 324.9056,47.9349421 324.9056,46.1824 C324.9056,44.2975906 325.137064,42.5368082 325.6,40.9 C326.062936,39.2631918 326.765595,37.849606 327.708,36.6592 C328.650405,35.468794 329.832526,34.5264035 331.2544,33.832 C332.676274,33.1375965 334.346124,32.7904 336.264,32.7904 C337.289072,32.7904 338.297595,32.9309319 339.2896,33.212 C340.281605,33.4930681 341.199196,33.8981307 342.0424,34.4272 C342.885604,34.9562693 343.62133,35.617596 344.2496,36.4112 C344.87787,37.204804 345.357332,38.097595 345.688,39.0896 L345.7872,39.0896 L345.7872,23.4656 L347.672,23.4656 L347.672,58.88 L345.7872,58.88 L345.7872,53.424 Z M336.3136,57.8384 C337.933875,57.8384 339.330927,57.5077366 340.5048,56.8464 C341.678673,56.1850634 342.654129,55.3088055 343.4312,54.2176 C344.208271,53.1263945 344.786931,51.8781404 345.1672,50.4728 C345.547469,49.0674596 345.7376,47.6373406 345.7376,46.1824 C345.7376,44.6943926 345.547469,43.2477404 345.1672,41.8424 C344.786931,40.4370596 344.216537,39.1805389 343.456,38.0728 C342.695463,36.9650611 341.711739,36.0805366 340.5048,35.4192 C339.297861,34.7578634 337.884275,34.4272 336.264,34.4272 C334.577592,34.4272 333.139206,34.7495968 331.9488,35.3944 C330.758394,36.0392032 329.774671,36.9071945 328.9976,37.9984 C328.220529,39.0896055 327.658402,40.3461262 327.3112,41.768 C326.963998,43.1898738 326.7904,44.6613257 326.7904,46.1824 C326.7904,47.6704074 326.980531,49.1170596 327.3608,50.5224 C327.741069,51.9277404 328.319729,53.1759945 329.0968,54.2672 C329.873871,55.3584055 330.857594,56.2263968 332.048,56.8712 C333.238406,57.5160032 334.660258,57.8384 336.3136,57.8384 Z M354.4176,46.3808 L354.4176,46.6784 C354.4176,48.1664074 354.615998,49.5882599 355.0128,50.944 C355.409602,52.2997401 355.996529,53.4901282 356.7736,54.5152 C357.550671,55.5402718 358.526127,56.350397 359.7,56.9456 C360.873873,57.540803 362.237859,57.8384 363.792,57.8384 C366.338146,57.8384 368.355193,57.1688067 369.8432,55.8296 C371.331207,54.4903933 372.356264,52.6304119 372.9184,50.2496 L374.8032,50.2496 C374.241064,53.2256149 373.025876,55.5071921 371.1576,57.0944 C369.289324,58.6816079 366.817615,59.4752 363.7424,59.4752 C361.857591,59.4752 360.21254,59.1362701 358.8072,58.4584 C357.40186,57.7805299 356.228005,56.8546725 355.2856,55.6808 C354.343195,54.5069275 353.640536,53.1181414 353.1776,51.5144 C352.714664,49.9106586 352.4832,48.1829426 352.4832,46.3312 C352.4832,44.5455911 352.722931,42.8344082 353.2024,41.1976 C353.681869,39.5607918 354.401062,38.1224062 355.36,36.8824 C356.318938,35.6423938 357.517593,34.6504037 358.956,33.9064 C360.394407,33.1623963 362.089057,32.7904 364.04,32.7904 C365.825609,32.7904 367.404526,33.1210634 368.7768,33.7824 C370.149074,34.4437366 371.298129,35.3447943 372.224,36.4856 C373.149871,37.6264057 373.852531,38.9490591 374.332,40.4536 C374.811469,41.9581409 375.0512,43.5701247 375.0512,45.2896 C375.0512,45.4549342 375.042933,45.6450656 375.0264,45.86 C375.009867,46.0749344 375.0016,46.2485327 375.0016,46.3808 L354.4176,46.3808 Z M373.1168,44.744 C373.050666,43.3551931 372.819202,42.0408062 372.4224,40.8008 C372.025598,39.5607938 371.438671,38.4696047 370.6616,37.5272 C369.884529,36.5847953 368.942139,35.8325361 367.8344,35.2704 C366.726661,34.7082639 365.461874,34.4272 364.04,34.4272 C362.518926,34.4272 361.179739,34.7165304 360.0224,35.2952 C358.865061,35.8738696 357.889604,36.6343953 357.096,37.5768 C356.302396,38.5192047 355.690669,39.6186604 355.2608,40.8752 C354.830931,42.1317396 354.5664,43.4213267 354.4672,44.744 L373.1168,44.744 Z" id="node-provide" fill="#FFFFFF"></path>
            </g>
        </g>
    </g>
</svg>